#define layout_terminal_width 25
#define layout_terminal_height 15
static unsigned char layout_terminal_bits[] = {
   0xff, 0xff, 0xff, 0x01, 0x21, 0x84, 0x10, 0x01, 0x21, 0x84, 0x10, 0x01,
   0x21, 0x84, 0x10, 0x01, 0x21, 0x84, 0x10, 0x01, 0x21, 0x84, 0x10, 0x01,
   0x21, 0x84, 0x10, 0x01, 0x21, 0x84, 0x10, 0x01, 0x21, 0x84, 0x10, 0x01,
   0x21, 0x84, 0x10, 0x01, 0x21, 0x84, 0x10, 0x01, 0x21, 0x84, 0x10, 0x01,
   0x21, 0x84, 0x10, 0x01, 0x21, 0x84, 0x10, 0x01, 0xff, 0xff, 0xff, 0x01 };
