#define layout_tall_width 25
#define layout_tall_height 15
static unsigned char layout_tall_bits[] = {
   0xff, 0xff, 0xff, 0x01, 0x01, 0x40, 0x00, 0x01, 0x01, 0x40, 0x00, 0x01,
   0x01, 0x40, 0x00, 0x01, 0x01, 0x40, 0x00, 0x01, 0x01, 0xc0, 0xff, 0x01,
   0x01, 0x40, 0x00, 0x01, 0x01, 0x40, 0x00, 0x01, 0x01, 0x40, 0x00, 0x01,
   0x01, 0xc0, 0xff, 0x01, 0x01, 0x40, 0x00, 0x01, 0x01, 0x40, 0x00, 0x01,
   0x01, 0x40, 0x00, 0x01, 0x01, 0x40, 0x00, 0x01, 0xff, 0xff, 0xff, 0x01 };
