#define layout_tabbed_width 25
#define layout_tabbed_height 15
static unsigned char layout_tabbed_bits[] = {
   0xff, 0xff, 0xff, 0x01, 0x21, 0x84, 0x10, 0x01, 0xff, 0xff, 0xff, 0x01,
   0x01, 0x00, 0x00, 0x01, 0x01, 0x00, 0x00, 0x01, 0x01, 0x00, 0x00, 0x01,
   0x01, 0x00, 0x00, 0x01, 0x01, 0x00, 0x00, 0x01, 0x01, 0x00, 0x00, 0x01,
   0x01, 0x00, 0x00, 0x01, 0x01, 0x00, 0x00, 0x01, 0x01, 0x00, 0x00, 0x01,
   0x01, 0x00, 0x00, 0x01, 0x01, 0x00, 0x00, 0x01, 0xff, 0xff, 0xff, 0x01 };
